<svg id="Layer_1" xmlns="http://www.w3.org/2000/svg" width="32" height="32" viewBox="0 0 32 32"><path d="M5.082 5.593c-.564.564-.423 1.213.564 2.679.508.761 1.1 1.946 1.326 2.623.226.705.677 1.664.987 2.143.564.79.564.959.197 2.397-.226.902-.31 2.031-.197 2.736.169 1.185 1.128 2.905 1.72 3.103.508.168 1.241-.733 1.269-1.551 0-.705.028-.733.338-.227.536.874 2.228 2.734 2.369 2.594.056-.056-.31-.79-.846-1.607-.508-.846-1.1-1.945-1.325-2.453-.31-.846-.423-.902-.79-.508-.226.226-.508.873-.592 1.465-.226 1.354-.733 1.523-1.128.367-.395-1.155-.395-3.13 0-4.483.282-.931.254-1.184-.226-1.89-.31-.423-.79-1.438-1.044-2.256-.254-.791-.846-1.975-1.325-2.596-1.1-1.551-1.1-2.115.056-1.89.479.085 1.213.423 1.664.733.423.31 1.156.564 1.607.564 1.354 0 3.723 1.326 5.443 3.046 1.326 1.325 2.001 2.397 3.441 5.302 1.692 3.44 1.833 3.638 2.877 3.976 1.241.424 3.835 2.002 3.835 2.342 0 .113-.649.281-1.438.338-2.114.227-2.312.62-.93 1.861.648.563 1.861 1.438 2.735 1.918l1.579.901-.732-.931c-.424-.508-1.298-1.297-1.975-1.721-.678-.422-1.213-.873-1.213-.986s.479-.311 1.072-.395c1.578-.283 2.029-.424 2.029-.705 0-.424-2.848-2.566-4.201-3.159-1.156-.536-1.297-.763-2.793-3.835-1.326-2.82-1.86-3.61-3.553-5.302-2.171-2.171-3.666-3.102-5.584-3.384-.648-.113-1.55-.451-1.945-.733-.931-.705-2.82-.959-3.272-.479l.001.003z"/></svg>