<svg id="Layer_1" xmlns="http://www.w3.org/2000/svg" width="190.385" height="59.667" viewBox="0 0 190.385 59.667"><path fill-rule="evenodd" clip-rule="evenodd" d="M29.948 30.261c0-.542-.285-1.04-.753-1.309l-12.469-7.176a1.471 1.471 0 0 0-.687-.198h-.129c-.238.01-.475.074-.688.198L2.754 28.953A1.509 1.509 0 0 0 2 30.261l.027 19.322c0 .269.14.519.376.65a.723.723 0 0 0 .748 0l7.41-4.243c.469-.278.754-.77.754-1.307v-9.027c0-.538.285-1.036.752-1.304l3.155-1.817a1.495 1.495 0 0 1 1.504 0l3.154 1.817c.467.268.753.766.753 1.304v9.027c0 .537.289 1.031.755 1.307l7.408 4.243a.732.732 0 0 0 .753 0 .754.754 0 0 0 .374-.65l.025-19.322zM96.528 3.7a.755.755 0 0 0-1.121.657v19.135a.528.528 0 0 1-.79.457l-3.123-1.799a1.507 1.507 0 0 0-1.505 0l-12.474 7.199a1.506 1.506 0 0 0-.753 1.304v14.401c0 .538.287 1.034.753 1.305l12.473 7.204a1.508 1.508 0 0 0 1.507 0l12.475-7.204a1.51 1.51 0 0 0 .753-1.305V9.157c0-.546-.295-1.049-.772-1.315L96.528 3.7zm-1.157 36.622a.376.376 0 0 1-.188.326L90.9 43.117a.377.377 0 0 1-.376 0l-4.283-2.469a.374.374 0 0 1-.188-.326v-4.945c0-.134.072-.259.188-.326l4.283-2.474a.379.379 0 0 1 .377 0l4.283 2.474a.378.378 0 0 1 .188.326v4.945zm45.784-5.074c.463-.27.749-.766.749-1.302v-3.49c0-.537-.286-1.033-.75-1.303l-12.394-7.196a1.509 1.509 0 0 0-1.51-.002l-12.469 7.199a1.506 1.506 0 0 0-.753 1.304v14.397c0 .541.29 1.041.761 1.309l12.392 7.061a1.508 1.508 0 0 0 1.478.009l7.495-4.166a.754.754 0 0 0 .009-1.311l-12.549-7.203a.753.753 0 0 1-.378-.652V35.39c0-.269.144-.518.377-.652l3.905-2.251a.754.754 0 0 1 .752 0l3.907 2.251a.753.753 0 0 1 .377.652v3.55a.751.751 0 0 0 1.131.65l7.47-4.342zM52.63 21.879a1.506 1.506 0 0 1 1.506 0l12.472 7.197c.466.269.753.766.753 1.305v14.406a1.51 1.51 0 0 1-.753 1.305l-12.472 7.203a1.508 1.508 0 0 1-1.507 0L40.16 46.092a1.508 1.508 0 0 1-.753-1.305V30.381c0-.538.287-1.035.753-1.304l12.47-7.198z"/><path d="M165.371 53.5a2.46 2.46 0 0 1-1.233-.33l-3.927-2.323c-.586-.328-.3-.444-.106-.512.782-.271.94-.334 1.775-.808.087-.049.202-.03.292.022l3.017 1.791a.385.385 0 0 0 .364 0l11.761-6.788a.37.37 0 0 0 .18-.318V30.663a.377.377 0 0 0-.183-.324l-11.756-6.782a.37.37 0 0 0-.362 0l-11.753 6.784a.378.378 0 0 0-.187.322v13.572c0 .13.072.253.186.314l3.222 1.861c1.748.874 2.818-.155 2.818-1.189v-13.4c0-.189.152-.339.342-.339h1.491a.34.34 0 0 1 .341.339v13.4c0 2.333-1.271 3.671-3.482 3.671-.68 0-1.215 0-2.709-.736l-3.084-1.775a2.483 2.483 0 0 1-1.233-2.146V30.663a2.48 2.48 0 0 1 1.233-2.144l11.761-6.796a2.577 2.577 0 0 1 2.472 0l11.76 6.796a2.482 2.482 0 0 1 1.235 2.144v13.572c0 .882-.474 1.702-1.235 2.146l-11.76 6.79a2.485 2.485 0 0 1-1.24.329z"/><path d="M169.004 44.15c-5.146 0-6.225-2.362-6.225-4.344 0-.188.151-.339.34-.339h1.521a.34.34 0 0 1 .338.288c.229 1.548.914 2.329 4.026 2.329 2.478 0 3.532-.561 3.532-1.875 0-.758-.299-1.32-4.149-1.697-3.218-.318-5.208-1.029-5.208-3.604 0-2.373 2-3.788 5.354-3.788 3.768 0 5.632 1.308 5.868 4.113a.343.343 0 0 1-.09.262.347.347 0 0 1-.249.108h-1.526a.338.338 0 0 1-.33-.266c-.366-1.629-1.257-2.149-3.673-2.149-2.705 0-3.02.942-3.02 1.648 0 .855.371 1.104 4.023 1.588 3.614.478 5.331 1.154 5.331 3.694 0 2.564-2.137 4.032-5.863 4.032zm16.217-22.396v.349h-.989v2.579h-.399v-2.579h-.986v-.349h2.374zm.353 0h.568l.841 2.475.837-2.475h.564v2.928h-.379v-1.728l.003-.296c.004-.141.006-.289.006-.446l-.837 2.47h-.393l-.844-2.47v.088c0 .072 0 .182.005.33.003.146.007.254.007.324v1.728h-.379v-2.928z"/><path fill-rule="evenodd" clip-rule="evenodd" d="M127.822 34.573a.287.287 0 0 1 .289 0l2.394 1.381a.29.29 0 0 1 .145.25v2.764a.288.288 0 0 1-.145.25l-2.394 1.382a.292.292 0 0 1-.289 0l-2.392-1.382a.288.288 0 0 1-.145-.25v-2.764c0-.104.056-.199.145-.25l2.392-1.381z"/></svg>