<svg id="Layer_1" xmlns="http://www.w3.org/2000/svg" width="32" height="32" viewBox="0 0 32 32"><path d="M10.372 13.069H6.405L4.69 21.753h2.037l.429-2.251h1.93c1.822.107 3.86-1.395 3.86-3.967 0-1.501-.858-2.359-2.574-2.466zm-1.501 4.826H7.584l.536-3.217h1.394c.75 0 1.287.322 1.287.965-.107 1.823-.965 2.144-1.93 2.252zm8.684-4.826h-1.93l.429-2.251h-2.037l-1.715 8.684h2.037l.965-4.824h1.608c.751 0 .751.322.643.858l-.75 3.967h2.145l.75-4.396c.213-1.072-.43-1.93-2.145-2.038zm7.183 0h-3.967l-1.715 8.684h2.036l.429-2.251h1.931c1.823.107 3.86-1.395 3.86-3.967 0-1.501-.858-2.359-2.574-2.466zm-1.502 4.826H21.95l.536-3.217h1.394c.751 0 1.287.322 1.287.965-.106 1.823-.965 2.144-1.931 2.252z"/></svg>