<svg id="Layer_1" xmlns="http://www.w3.org/2000/svg" width="427" height="320" viewBox="0 0 427 320"><path d="M185.9 0h14.48c15.75.99 31.81 3.98 45.54 12.13 9.92 5.89 18.58 15.03 21.38 26.49 4.44 15.26.7 31.66-6.09 45.63-12.97 25.77-36.819 45.68-64.23 54.49-19.83 6.84-41.12 9.99-62.05 7.69-11.75-1.09-23.24-6.35-31.25-15.1-2.91-3.29-5.44-7.42-5.39-11.95.57-1.24 2.38-2.68 3.54-1.2 3.09 2.56 5.61 5.83 9.19 7.77 11.78 6.89 26.01 7.64 39.26 5.95 27.64-3.57 54.6-15.37 74.541-35.08 9.229-9.39 17.15-20.67 20.209-33.64 1.611-8.69 1.201-19.05-5.84-25.37-10.859-9.7-26.239-11.53-40.219-11.95-30.51.14-60.12 10.23-86.95 24.18C90.97 61.03 70.23 73.48 53.45 90.49c-11.45 11.6-21.22 26.58-21.09 43.45-.42 12.07 6.06 23.06 14.12 31.55 16.02 16.9 36.9 28.25 52.85 45.24 13.04-7.061 25.98-14.33 39.05-21.33 4.43-2.08 6.58-6.73 9.99-9.971 7-7.09 15.16-13.57 24.82-16.5 5.97-1.82 13.87-1.359 17.48 4.48 3.77 6.359 2.99 14.17 2.27 21.21 4.03-2.64 9.88-2.49 13.15 1.29 2.17 3.49.14 7.66-.64 11.279-3.28 11.511-6.23 23.121-8.76 34.82-1.01 4.49-1.19 9.12-.76 13.7 3.38-2.84 4.85-7.09 6.85-10.88 9.96-20.68 19.02-41.79 28.361-62.76 2.969-6.98 6.439-13.851 7.83-21.37.709-2.24.819-5.31 3.329-6.34 5.79-2.67 12.44-2.33 18.66-2.01 2.44.25 6.22 1.6 5.7 4.7-.891 5.03-3.45 9.61-4.189 14.7-1.631 7.13-.83 14.5.559 21.6 1.08 4.49 3.4 8.53 5.361 12.67C276.84 186.05 285 171.87 291.88 157.06c3.07-6.11 3.21-13.16 6.03-19.36.92-2.72 4.279-2.75 6.609-3.46 6-.94 12.771-2.15 18.341.979 3.229 2.32.21 6.38-.36 9.33-3.72 9.27-4.13 19.58-2.1 29.29 1.729 6.71 5.39 12.68 8.439 18.85 9.82-4.5 20.311-7.89 31.16-8.449 15.75-1.44 32.38 1.08 45.79 9.9 11.16 7.139 19.64 18.889 21.21 32.239v7.25c-1.5 11.88-11.28 22.63-23.3 24.2-.25-.73-.73-2.189-.98-2.91 5.311-3.66 11.05-7.449 13.61-13.67 4.12-8.26.52-17.939-4.68-24.82-8.66-11.24-23.051-16-36.641-17.689-11.1-.721-22.54-1.211-33.3 2.109-2.65.76-5.26 1.621-7.88 2.471 2.82 8.52 5.54 18.25 1.27 26.8-5.949 11.95-18.06 19.59-30.379 23.739-4.611 1.781-10.591 2.67-14.531-1.029-4.279-3.811-3.149-10.28-2.39-15.311 3.56-13.789 13.47-24.91 24.08-33.939-5.95-10.48-9.649-22.04-11.61-33.9a357.07 357.07 0 0 1-25.369 43.391c3.609 9.01 6.59 19.08 3.699 28.729-2.3 8.771-9.01 15.681-16.85 19.88-9.04 4.92-19.33 8.221-29.73 7.49-3.439-.23-7.619-2.33-7.81-6.189-.54-3.771 1.81-6.951 3.979-9.74 9.021-11.471 19.15-22.061 27.431-34.1-2.56-5.091-5.21-10.141-7.341-15.42-2.779-6.771-3.889-14.051-5.909-21.051-10.021 26.92-22.931 52.689-37.04 77.689-3.42 5.66-7.64 11.361-13.74 14.301-5.13 2.39-11.12-1.12-13.01-6.1-3.33-8.5-2.66-17.851-1.59-26.721-4.02 9.77-8.23 19.49-13.42 28.689-2.66 4.531-6.32 9.311-11.84 10.23-4.57.67-9.9.34-13.37-3.09-3.92-3.8-6.36-8.811-8.36-13.82-3.24-8.879-5.18-18.359-4.39-27.84.78-9.369 2.44-18.72 5.44-27.64-7.97 4.36-15.8 8.979-23.65 13.55 6.66 14.28 6.49 30.85 3.01 45.95-6.87 27.8-32.42 49.95-61.07 52.13h-9.27c-5.48-1.04-11.72-1.04-16.1-4.98-7.42-6.319-10.57-16.479-10.21-26 .53-10.51 4.49-20.899 11.45-28.84 15.87-17.939 37.23-29.699 58.2-40.66-4.28-4.129-9.26-7.399-14.06-10.869-17.13-11.961-34.95-23.34-49.43-38.59C10.29 160.16 2.3 147.98 0 134.14v-6.53c1.24-11.37 5.9-22.05 11.96-31.65C20.42 82.48 31.67 71 43.71 60.7c20.65-17.12 44.21-30.45 68.71-41.2 14.33-6.11 28.9-11.94 44.15-15.29 9.59-2.5 19.5-3.28 29.33-4.21m-20.39 187.529c-6.64 8.41-11.57 18.171-14.9 28.341-2.95 11.271-4.89 23.47-1.43 34.86.68 1.479.94 3.859 2.9 4.149 2.79.39 4.02-2.61 5.35-4.47 5.13-8.76 8.3-18.46 12.06-27.83 3.06-7.52 5.77-15.18 8.26-22.91 1.8-6.66 4.61-13.26 3.94-20.311-6.57-1.788-12.07 3.802-16.18 8.171m151.93 24.721c-4.78 4.45-9.061 9.58-11.891 15.5-2.03 4.439-4.489 8.95-4.18 14.01 5.42-1.66 10.59-4.82 13.83-9.55 3.229-5.01 4.85-11.29 3.6-17.19-.399-.92-.159-2.48-1.359-2.77M63.59 248.54c-7.99 6.28-15.83 13.431-19.97 22.931-2.81 5.719-4.25 12.379-2.65 18.649 1.44 4.47 6.61 6.351 10.94 5.979 8.01-.859 15.57-4.359 21.96-9.189 10.86-8.46 19.07-20.68 21.39-34.37 1.85-7.97.59-16.16-1.29-23.99-10.65 5.809-20.79 12.559-30.38 19.99m176.71 7.51c4.49-.55 8-3.59 11.341-6.35 5.619-4.681 9.889-11.36 10-18.87-6.601 8.84-14.211 16.82-21.341 25.22z" id="_x23_040707ff"/></svg>