<svg id="Layer_1" xmlns="http://www.w3.org/2000/svg" width="189.5" height="173.5" viewBox="0 0 189.5 173.5"><path d="M29.58 19.208c10.51-4.56 21.03-9.15 31.63-13.5 21.73.02 43.47.02 65.2 0 9.7 3.95 19.28 8.24 28.94 12.3 1.08.55 2.399.8 3.229 1.75 8.4 9.4 16.551 19.01 24.99 28.37-29.74 40.07-59.83 79.89-89.61 119.931l-.84-.76C63.42 127.587 33.66 87.918 4 48.168c8.62-9.57 16.9-19.45 25.58-28.96m14.93 2.37c-.06.271-.16.81-.22 1.08 7.63 2.93 14.77 7.04 22.33 10.13l1.44.69c17.15.05 34.29.05 51.439 0l1.44-.66c7.55-3.14 14.729-7.2 22.36-10.18-.061-.27-.17-.8-.23-1.06-7.49-2.82-14.71-6.27-22.109-9.29-1.75-1.03-3.811-.41-5.711-.55-14.299 0-28.6-.01-42.91 0-1.89.08-3.85-.33-5.66.37-7.399 3.13-14.669 6.6-22.169 9.47m-30.12 27.74c7.86 6.27 15.89 12.32 23.84 18.48 6.21-9.06 12.31-18.21 18.74-27.11-.68-1.19-2.23-1.35-3.31-2.02-7.76-3.61-15.4-7.48-23.23-10.92-5.34 7.2-10.49 14.54-16.04 21.57m115.83-9.06c6.311 9.21 12.52 18.52 19.061 27.54 7.649-6.42 16.01-12.04 23.529-18.58-5.46-6.93-10.529-14.16-15.77-21.25l-.69-.14c-8.69 4.18-17.39 8.35-26.13 12.43m-61.75 1.05l-.64.25c-6.04 10.53-11.92 21.16-17.95 31.71 29.26-.1 58.52-.07 87.79-.02a8140.232 8140.232 0 0 0-17.899-31.69l-.601-.25c-16.9.05-33.8.05-50.7 0m-44.03 26.73c12.03 16.26 23.8 32.72 35.72 49.07 4.92 6.7 9.45 13.7 14.79 20.09-11.7-19.18-23.61-38.239-35.35-57.4-2.99-2.97-6.61-5.29-9.85-8-1.76-1.27-3.16-3.15-5.31-3.76m132.351 4.38c-3.08 2.59-6.65 4.68-9.32 7.69-11.6 18.97-23.34 37.87-35.01 56.8 5.189-5.869 9.32-12.56 13.97-18.84 12.18-16.609 24.06-33.45 36.44-49.92-2.511.58-4.021 2.91-6.08 4.27M51.99 82.828c14.07 24.66 27.72 49.561 41.87 74.161 13.921-24.71 27.75-49.481 41.74-74.15-27.87.019-55.74.039-83.61-.011z" id="_x23_fec62eff"/></svg>