<svg id="Layer_1" xmlns="http://www.w3.org/2000/svg" width="309.167" height="274.5" viewBox="0 0 309.167 274.5"><path d="M2.062 8.38c.1-4.3 4.27-7.74 8.5-7.35 95.97.02 191.95.02 287.93 0 4.21-.39 8.38 3.04 8.49 7.33.11 5.65.021 11.3.03 16.95-101.66 0-203.32 0-304.98-.01.01-5.64-.09-11.28.03-16.92zm.041 239.419c101.61.01 203.23.01 304.84 0 .16 5.49.09 10.99.07 16.48-.03 4.35-4.17 7.869-8.44 7.51-94.37.01-188.73 0-283.1 0-2.29-.01-4.58.109-6.86-.119-3.62-.461-6.54-3.811-6.58-7.441-.02-5.479-.091-10.959.07-16.43z" id="_x23_bdbec0ff"/><path d="M2.032 19.491c101.66.011 203.32.011 304.98.011 0 78.216.02 156.431 0 234.657h-.07c-101.609.011-203.23.011-304.84 0h-.08c-.009-78.226.01-156.441.01-234.668m33.24 27.949c-.02 4.44.02 8.881-.02 13.321-4.34.875-8.8 2.436-11.91 5.927-5.4 5.622-5.61 15.99-.04 21.559 5.49 5.622 13.26 7.204 19.99 10.505 1.92 1.033 4.37 2.468 4.29 5.104-.03 2.637-2.81 3.85-4.92 4.103-7.14.897-13.86-2.542-19.8-6.297-2.1 3.555-4.31 7.035-6.38 10.6 5.32 4.62 11.99 7.267 18.79 8.153-.01 4.936-.03 9.882.01 14.829 3.28-.095 6.57.231 9.84-.211-.19-4.958-.03-9.925-.12-14.882 5.07-1.097 10.28-3.28 13.47-7.794 4.44-6.001 4.14-15.599-1.39-20.746-6.14-6.212-15.11-7.088-22.19-11.507-2.71-1.434-1.73-5.622.86-6.539 6.19-1.962 12.61.674 17.64 4.482 2.39-2.954 4.9-5.801 7.2-8.85-4.06-4.788-9.75-7.425-15.61-8.722.08-4.345.04-8.69.04-13.036-3.25-.019-6.5-.03-9.75.001m43.48.022c.04 29.257-.01 58.514.02 87.771 10.65.011 21.29-.021 31.94.021.16-29.278.01-58.556.08-87.834-10.68.02-21.359-.053-32.04.042z" id="_x23_09232dff"/></svg>