<svg width="380" height="665" viewBox="0 0 380 665" xmlns="http://www.w3.org/2000/svg"><title>jekyll</title><defs><linearGradient x1="72.493%" y1="53.226%" x2="-6.187%" y2="37.967%" id="linearGradient-1"><stop stop-color="#F9F9F9" offset="0%"/><stop stop-color="#ECECEC" offset="19.298%"/><stop stop-color="#AAACAC" offset="87.326%"/><stop stop-color="#8F9191" offset="100%"/></linearGradient><filter x="-50%" y="-50%" width="200%" height="200%" filterUnits="objectBoundingBox" id="filter-2"><feOffset dx="-5" dy="-5" in="SourceAlpha" result="shadowOffsetInner1"/><feGaussianBlur in="shadowOffsetInner1" result="shadowBlurInner1"/><feComposite in="shadowBlurInner1" in2="SourceAlpha" operator="arithmetic" k2="-1" k3="1" result="shadowInnerInner1"/><feColorMatrix values="0 0 0 0 0.898039216 0 0 0 0 0.898039216 0 0 0 0 0.898039216 0 0 0 0.7 0" in="shadowInnerInner1" result="shadowMatrixInner1"/><feMerge><feMergeNode in="SourceGraphic"/><feMergeNode in="shadowMatrixInner1"/></feMerge></filter><filter x="-50%" y="-50%" width="200%" height="200%" filterUnits="objectBoundingBox" id="filter-3"><feOffset dx="-3" in="SourceAlpha" result="shadowOffsetInner1"/><feGaussianBlur stdDeviation="2" in="shadowOffsetInner1" result="shadowBlurInner1"/><feComposite in="shadowBlurInner1" in2="SourceAlpha" operator="arithmetic" k2="-1" k3="1" result="shadowInnerInner1"/><feColorMatrix values="0 0 0 0 0 0 0 0 0 0 0 0 0 0 0 0 0 0 0.042 0" in="shadowInnerInner1" result="shadowMatrixInner1"/><feMerge><feMergeNode in="SourceGraphic"/><feMergeNode in="shadowMatrixInner1"/></feMerge></filter><linearGradient x1="100%" y1="51.332%" x2="-41.413%" y2="50%" id="linearGradient-4"><stop stop-color="#E90388" offset="0%"/><stop stop-color="#A10961" offset="38.536%"/><stop stop-color="#861657" offset="70.717%"/><stop stop-color="#3E102B" offset="100%"/></linearGradient></defs><g id="Page-1" fill="none" fill-rule="evenodd"><g id="Jekyll"><g id="jekyll" transform="translate(-131 -260)"><path id="bg" fill="#FCFCFC" d="M0 0h640v1136H0z"/><path d="M144.341 813.75c-15.089 39.308 4.532 83.4 43.844 98.49 39.303 15.088 83.396-4.547 98.485-43.854 0 0 181.33-477.386 186.973-488.407C488 372 497 368 500 361c8.482-20.995-19.772-51.967-73.54-73.69-53.767-21.724-101.548-25.704-103.46 0-1.465 19.69 6 23.69 9.393 38.006 1.64 2.135-188.052 488.435-188.052 488.435z" id="base" fill="url(#linearGradient-1)" filter="url(#filter-2)"/><path d="M407.068 334.093c31.089 12.56 58.997 16.046 62.335 7.784 3.338-8.262-19.158-25.142-50.247-37.703-31.089-12.56-58.997-16.045-62.335-7.784-3.338 8.262 19.158 25.142 50.247 37.703z" id="black-circle" fill-opacity=".2" fill="#333" filter="url(#filter-3)"/><path d="M275.6 520.623c-38.96 19.644-50.347 47.709-50.347 90.427v238.122c0 29.534 23.935 53.476 53.475 53.476 29.533 0 53.475-23.947 53.475-53.475v-405.84c-9.57 25.312-17.642 57.646-56.602 77.29z" id="liquid" fill="url(#linearGradient-4)" transform="rotate(21 278.728 672.99)"/><path d="M221.94 917.048C203.14 901.265 187.91 876.807 196 848c11.48-40.878 185-490 185-490s-44-19-57-56a.263.263 0 0 0-.135.048c1.965 8.491 6.203 13.457 8.528 23.268 1.64 2.135-188.052 488.435-188.052 488.435-19.341 35.249 4.532 83.4 43.844 98.49 11.123 4.27 22.63 5.758 33.755 4.807z" id="gloss" fill-opacity=".4" fill="#FFF"/><g id="bubbles" transform="translate(218 603)" fill="#FFF" fill-opacity=".5"><path d="M37 120c11.046 0 20-8.954 20-20s-8.954-20-20-20-20 8.954-20 20 8.954 20 20 20z" id="Oval-2"/><circle id="Oval-2" cx="92.5" cy="51.5" r="10.5"/><circle id="Oval-2" cx="9" cy="130" r="9"/><circle id="Oval-2" cx="55.5" cy="7.5" r="7.5"/><circle id="Oval-2" cx="44.5" cy="192.5" r="7.5"/></g></g></g></g></svg>